<svg width="25" height="12" viewBox="0 0 25 12" fill="none" xmlns="http://www.w3.org/2000/svg">
<path opacity="0.35" d="M0.5 4.6C0.5 3.84501 0.500389 3.30884 0.534671 2.88925C0.568475 2.4755 0.632728 2.21934 0.736153 2.01635C0.943878 1.60867 1.27534 1.27721 1.68302 1.06949C1.886 0.966062 2.14217 0.901809 2.55592 0.868005C2.97551 0.833723 3.51168 0.833334 4.26667 0.833334H17.7333C18.4883 0.833334 19.0245 0.833723 19.4441 0.868005C19.8578 0.901809 20.114 0.966062 20.317 1.06949C20.7247 1.27721 21.0561 1.60867 21.2638 2.01636C21.3673 2.21934 21.4315 2.4755 21.4653 2.88926C21.4996 3.30884 21.5 3.84501 21.5 4.6V7.4C21.5 8.15499 21.4996 8.69116 21.4653 9.11075C21.4315 9.5245 21.3673 9.78066 21.2638 9.98365C21.0561 10.3913 20.7247 10.7228 20.317 10.9305C20.114 11.0339 19.8578 11.0982 19.4441 11.132C19.0245 11.1663 18.4883 11.1667 17.7333 11.1667H4.26667C3.51168 11.1667 2.97551 11.1663 2.55592 11.132C2.14217 11.0982 1.886 11.0339 1.68302 10.9305C1.27534 10.7228 0.943878 10.3913 0.736153 9.98365C0.632728 9.78066 0.568475 9.5245 0.534671 9.11075C0.500389 8.69116 0.5 8.15499 0.5 7.4V4.6Z" stroke="black"/>
<path opacity="0.4" d="M23 4V8C23.8047 7.66122 24.328 6.87313 24.328 6C24.328 5.12687 23.8047 4.33878 23 4Z" fill="black"/>
<path d="M2 4.46667C2 3.71993 2 3.34656 2.14532 3.06135C2.27316 2.81046 2.47713 2.60649 2.72801 2.47866C3.01323 2.33333 3.3866 2.33333 4.13333 2.33333H17.8667C18.6134 2.33333 18.9868 2.33333 19.272 2.47866C19.5229 2.60649 19.7268 2.81046 19.8547 3.06135C20 3.34656 20 3.71993 20 4.46667V7.53333C20 8.28007 20 8.65344 19.8547 8.93865C19.7268 9.18954 19.5229 9.39351 19.272 9.52134C18.9868 9.66667 18.6134 9.66667 17.8667 9.66667H4.13333C3.3866 9.66667 3.01323 9.66667 2.72801 9.52134C2.47713 9.39351 2.27316 9.18954 2.14532 8.93865C2 8.65344 2 8.28007 2 7.53333V4.46667Z" fill="black"/>
</svg>
