<svg width="188" height="50" viewBox="0 0 188 50" fill="none" xmlns="http://www.w3.org/2000/svg">
<path d="M79.75 15C79.75 14.3096 80.3096 13.75 81 13.75H89.5858C90.0499 13.75 90.495 13.5656 90.8232 13.2374L92.8232 11.2374C92.9209 11.1398 93.0791 11.1398 93.1768 11.2374L93.6982 10.716L93.1768 11.2374L95.1768 13.2374C95.505 13.5656 95.9501 13.75 96.4142 13.75H105C105.69 13.75 106.25 14.3096 106.25 15V37C106.25 37.6904 105.69 38.25 105 38.25H81C80.3096 38.25 79.75 37.6904 79.75 37V15Z" stroke="#B4B4B4" stroke-width="1.5"/>
<path d="M84.75 36C84.75 33.6528 86.6528 31.75 89 31.75H97C99.3472 31.75 101.25 33.6528 101.25 36V38.25H84.75V36Z" stroke="#B4B4B4" stroke-width="1.5"/>
<circle cx="93" cy="23" r="4.25" stroke="#B4B4B4" stroke-width="1.5"/>
</svg>
